<svg width="32" height="32" viewBox="0 0 32 32" fill="none" xmlns="http://www.w3.org/2000/svg">
<path d="M4 16C4 17.5759 4.31039 19.1363 4.91345 20.5922C5.5165 22.0481 6.40042 23.371 7.51472 24.4853C8.62902 25.5996 9.95189 26.4835 11.4078 27.0866C12.8637 27.6896 14.4241 28 16 28C17.5759 28 19.1363 27.6896 20.5922 27.0866C22.0481 26.4835 23.371 25.5996 24.4853 24.4853C25.5996 23.371 26.4835 22.0481 27.0866 20.5922C27.6896 19.1363 28 17.5759 28 16C28 12.8174 26.7357 9.76516 24.4853 7.51472C22.2348 5.26428 19.1826 4 16 4C12.8174 4 9.76516 5.26428 7.51472 7.51472C5.26428 9.76516 4 12.8174 4 16Z" stroke="url(#paint0_linear_91_783)" stroke-width="2" stroke-linecap="round" stroke-linejoin="round"/>
<path d="M12 16H20" stroke="url(#paint1_linear_91_783)" stroke-width="2" stroke-linecap="round" stroke-linejoin="round"/>
<path d="M16 12V20" stroke="url(#paint2_linear_91_783)" stroke-width="2" stroke-linecap="round" stroke-linejoin="round"/>
<defs>
<linearGradient id="paint0_linear_91_783" x1="16" y1="4" x2="16" y2="28" gradientUnits="userSpaceOnUse">
<stop stop-color="#0022FE"/>
<stop offset="1" stop-color="#001498"/>
</linearGradient>
<linearGradient id="paint1_linear_91_783" x1="16" y1="16" x2="16" y2="17" gradientUnits="userSpaceOnUse">
<stop stop-color="#0022FE"/>
<stop offset="1" stop-color="#001498"/>
</linearGradient>
<linearGradient id="paint2_linear_91_783" x1="16.5" y1="12" x2="16.5" y2="20" gradientUnits="userSpaceOnUse">
<stop stop-color="#0022FE"/>
<stop offset="1" stop-color="#001498"/>
</linearGradient>
</defs>
</svg>
