<svg width="24" height="24" viewBox="0 0 24 24" fill="none" xmlns="http://www.w3.org/2000/svg">
<g clip-path="url(#clip0_14_20)">
<mask id="path-1-inside-1_14_20" fill="white">
<path d="M6.99998 0H3C1.34273 0 0 1.34273 0 3V6.99998C0 8.65725 1.34273 9.99998 3 9.99998H6.99998C8.65725 9.99998 9.99998 8.65725 9.99998 6.99998V3C9.99998 1.34273 8.6573 0 6.99998 0ZM8.00002 6.99998C8.00002 7.55269 7.55273 7.99997 7.00003 7.99997H3C2.4473 7.99997 2.00002 7.55269 2.00002 6.99998V3C2.00002 2.4473 2.4473 2.00002 3 2.00002H6.99998C7.55269 2.00002 7.99997 2.4473 7.99997 3V6.99998H8.00002Z"/>
</mask>
<path d="M6.99998 0H3C1.34273 0 0 1.34273 0 3V6.99998C0 8.65725 1.34273 9.99998 3 9.99998H6.99998C8.65725 9.99998 9.99998 8.65725 9.99998 6.99998V3C9.99998 1.34273 8.6573 0 6.99998 0ZM8.00002 6.99998C8.00002 7.55269 7.55273 7.99997 7.00003 7.99997H3C2.4473 7.99997 2.00002 7.55269 2.00002 6.99998V3C2.00002 2.4473 2.4473 2.00002 3 2.00002H6.99998C7.55269 2.00002 7.99997 2.4473 7.99997 3V6.99998H8.00002Z" fill="black"/>
<path d="M8.00002 6.99998H10V4.99998H8.00002V6.99998ZM7.99997 6.99998H5.99997V8.99998H7.99997V6.99998ZM6.99998 0V-2H3V0V2H6.99998V0ZM3 0V-2C0.238165 -2 -2 0.238165 -2 3H0H2C2 2.4473 2.4473 2 3 2V0ZM0 3H-2V6.99998H0H2V3H0ZM0 6.99998H-2C-2 9.76182 0.238165 12 3 12V9.99998V7.99998C2.4473 7.99998 2 7.55268 2 6.99998H0ZM3 9.99998V12H6.99998V9.99998V7.99998H3V9.99998ZM6.99998 9.99998V12C9.76182 12 12 9.76182 12 6.99998H9.99998H7.99998C7.99998 7.55268 7.55268 7.99998 6.99998 7.99998V9.99998ZM9.99998 6.99998H12V3H9.99998H7.99998V6.99998H9.99998ZM9.99998 3H12C12 0.238185 9.76189 -2 6.99998 -2V0V2C7.55271 2 7.99998 2.44728 7.99998 3H9.99998ZM8.00002 6.99998H6.00002C6.00002 6.44812 6.44816 5.99997 7.00003 5.99997V7.99997V9.99997C8.6573 9.99997 10 8.65726 10 6.99998H8.00002ZM7.00003 7.99997V5.99997H3V7.99997V9.99997H7.00003V7.99997ZM3 7.99997V5.99997C3.55187 5.99997 4.00002 6.44812 4.00002 6.99998H2.00002H1.56164e-05C1.56164e-05 8.65726 1.34273 9.99997 3 9.99997V7.99997ZM2.00002 6.99998H4.00002V3H2.00002H1.56164e-05V6.99998H2.00002ZM2.00002 3H4.00002C4.00002 3.55187 3.55187 4.00002 3 4.00002V2.00002V1.56164e-05C1.34273 1.56164e-05 1.56164e-05 1.34273 1.56164e-05 3H2.00002ZM3 2.00002V4.00002H6.99998V2.00002V1.56164e-05H3V2.00002ZM6.99998 2.00002V4.00002C6.44812 4.00002 5.99997 3.55187 5.99997 3H7.99997H9.99997C9.99997 1.34273 8.65726 1.56164e-05 6.99998 1.56164e-05V2.00002ZM7.99997 3H5.99997V6.99998H7.99997H9.99997V3H7.99997ZM7.99997 6.99998V8.99998H8.00002V6.99998V4.99998H7.99997V6.99998Z" fill="white" mask="url(#path-1-inside-1_14_20)"/>
<mask id="path-3-inside-2_14_20" fill="white">
<path d="M21 0H17C15.3427 0 14 1.34273 14 3V6.99998C14 8.65725 15.3427 9.99998 17 9.99998H21C22.6573 9.99998 24 8.65725 24 6.99998V3C24 1.34273 22.6573 0 21 0ZM22 6.99998C22 7.55269 21.5527 7.99997 21 7.99997H17C16.4473 7.99997 16 7.55269 16 6.99998V3C16 2.4473 16.4473 2.00002 17 2.00002H21C21.5527 2.00002 22 2.4473 22 3V6.99998Z"/>
</mask>
<path d="M21 0H17C15.3427 0 14 1.34273 14 3V6.99998C14 8.65725 15.3427 9.99998 17 9.99998H21C22.6573 9.99998 24 8.65725 24 6.99998V3C24 1.34273 22.6573 0 21 0ZM22 6.99998C22 7.55269 21.5527 7.99997 21 7.99997H17C16.4473 7.99997 16 7.55269 16 6.99998V3C16 2.4473 16.4473 2.00002 17 2.00002H21C21.5527 2.00002 22 2.4473 22 3V6.99998Z" fill="black"/>
<path d="M21 0V-2H17V0V2H21V0ZM17 0V-2C14.2382 -2 12 0.238165 12 3H14H16C16 2.4473 16.4473 2 17 2V0ZM14 3H12V6.99998H14H16V3H14ZM14 6.99998H12C12 9.76182 14.2382 12 17 12V9.99998V7.99998C16.4473 7.99998 16 7.55268 16 6.99998H14ZM17 9.99998V12H21V9.99998V7.99998H17V9.99998ZM21 9.99998V12C23.7618 12 26 9.76182 26 6.99998H24H22C22 7.55268 21.5527 7.99998 21 7.99998V9.99998ZM24 6.99998H26V3H24H22V6.99998H24ZM24 3H26C26 0.238165 23.7618 -2 21 -2V0V2C21.5527 2 22 2.4473 22 3H24ZM22 6.99998H20C20 6.44812 20.4481 5.99997 21 5.99997V7.99997V9.99997C22.6573 9.99997 24 8.65726 24 6.99998H22ZM21 7.99997V5.99997H17V7.99997V9.99997H21V7.99997ZM17 7.99997V5.99997C17.5519 5.99997 18 6.44812 18 6.99998H16H14C14 8.65725 15.3427 9.99997 17 9.99997V7.99997ZM16 6.99998H18V3H16H14V6.99998H16ZM16 3H18C18 3.55186 17.5519 4.00002 17 4.00002V2.00002V1.56164e-05C15.3427 1.56164e-05 14 1.34273 14 3H16ZM17 2.00002V4.00002H21V2.00002V1.56164e-05H17V2.00002ZM21 2.00002V4.00002C20.4481 4.00002 20 3.55187 20 3H22H24C24 1.34273 22.6573 1.56164e-05 21 1.56164e-05V2.00002ZM22 3H20V6.99998H22H24V3H22Z" fill="white" mask="url(#path-3-inside-2_14_20)"/>
<mask id="path-5-inside-3_14_20" fill="white">
<path d="M6.99998 14H3C1.34273 14 0 15.3427 0 17V21C0 22.6573 1.34273 24 3 24H6.99998C8.65725 24 9.99998 22.6573 9.99998 21V17C9.99998 15.3427 8.6573 14 6.99998 14ZM8.00002 21C8.00002 21.5527 7.55273 22 7.00003 22H3C2.4473 22 2.00002 21.5527 2.00002 21V17C2.00002 16.4473 2.4473 16 3 16H6.99998C7.55269 16 7.99997 16.4473 7.99997 17V21H8.00002Z"/>
</mask>
<path d="M6.99998 14H3C1.34273 14 0 15.3427 0 17V21C0 22.6573 1.34273 24 3 24H6.99998C8.65725 24 9.99998 22.6573 9.99998 21V17C9.99998 15.3427 8.6573 14 6.99998 14ZM8.00002 21C8.00002 21.5527 7.55273 22 7.00003 22H3C2.4473 22 2.00002 21.5527 2.00002 21V17C2.00002 16.4473 2.4473 16 3 16H6.99998C7.55269 16 7.99997 16.4473 7.99997 17V21H8.00002Z" fill="black"/>
<path d="M8.00002 21H10V19H8.00002V21ZM7.99997 21H5.99997V23H7.99997V21ZM6.99998 14V12H3V14V16H6.99998V14ZM3 14V12C0.238165 12 -2 14.2382 -2 17H0H2C2 16.4473 2.4473 16 3 16V14ZM0 17H-2V21H0H2V17H0ZM0 21H-2C-2 23.7618 0.238165 26 3 26V24V22C2.4473 22 2 21.5527 2 21H0ZM3 24V26H6.99998V24V22H3V24ZM6.99998 24V26C9.76182 26 12 23.7618 12 21H9.99998H7.99998C7.99998 21.5527 7.55268 22 6.99998 22V24ZM9.99998 21H12V17H9.99998H7.99998V21H9.99998ZM9.99998 17H12C12 14.2381 9.76187 12 6.99998 12V14V16C7.55273 16 7.99998 16.4473 7.99998 17H9.99998ZM8.00002 21H6.00002C6.00002 20.4481 6.44816 20 7.00003 20V22V24C8.6573 24 10 22.6573 10 21H8.00002ZM7.00003 22V20H3V22V24H7.00003V22ZM3 22V20C3.55187 20 4.00002 20.4481 4.00002 21H2.00002H1.56164e-05C1.56164e-05 22.6573 1.34273 24 3 24V22ZM2.00002 21H4.00002V17H2.00002H1.56164e-05V21H2.00002ZM2.00002 17H4.00002C4.00002 17.5519 3.55186 18 3 18V16V14C1.34273 14 1.56164e-05 15.3427 1.56164e-05 17H2.00002ZM3 16V18H6.99998V16V14H3V16ZM6.99998 16V18C6.44812 18 5.99997 17.5519 5.99997 17H7.99997H9.99997C9.99997 15.3427 8.65725 14 6.99998 14V16ZM7.99997 17H5.99997V21H7.99997H9.99997V17H7.99997ZM7.99997 21V23H8.00002V21V19H7.99997V21Z" fill="white" mask="url(#path-5-inside-3_14_20)"/>
<mask id="path-7-inside-4_14_20" fill="white">
<path d="M23 18H20V15C20 14.4477 19.5523 14 19 14C18.4477 14 18 14.4477 18 15V18H15C14.4477 18 14 18.4477 14 19C14 19.5523 14.4477 20 15 20H18V23C18 23.5522 18.4477 23.9999 19 23.9999C19.5523 23.9999 20 23.5522 20 23V20H23C23.5523 20 24 19.5523 24 19C24 18.4477 23.5523 18 23 18Z"/>
</mask>
<path d="M23 18H20V15C20 14.4477 19.5523 14 19 14C18.4477 14 18 14.4477 18 15V18H15C14.4477 18 14 18.4477 14 19C14 19.5523 14.4477 20 15 20H18V23C18 23.5522 18.4477 23.9999 19 23.9999C19.5523 23.9999 20 23.5522 20 23V20H23C23.5523 20 24 19.5523 24 19C24 18.4477 23.5523 18 23 18Z" fill="black"/>
<path d="M20 18H18V20H20V18ZM19 14V16V14ZM18 18V20H20V18H18ZM18 20H20V18H18V20ZM20 20V18H18V20H20ZM24 19L22 18.9998V19H24ZM23 18V16H20V18V20H23V18ZM20 18H22V15H20H18V18H20ZM20 15H22C22 13.3431 20.6569 12 19 12V14V16C18.4477 16 18 15.5523 18 15H20ZM19 14L19 12C17.3432 12 16 13.3431 16 15H18H20C20 15.5523 19.5522 16 19 16L19 14ZM18 15H16V18H18H20V15H18ZM18 18V16H15V18V20H18V18ZM15 18V16C13.3431 16 12 17.3431 12 19H14H16C16 19.5523 15.5523 20 15 20V18ZM14 19H12C12 20.6568 13.3432 22 15 22V20V18C15.5523 18 16 18.4477 16 19H14ZM15 20V22H18V20V18H15V20ZM18 20H16V23H18H20V20H18ZM18 23H16C16 24.6568 17.3431 25.9999 19 25.9999V23.9999V21.9999C19.5523 21.9999 20 22.4477 20 23H18ZM19 23.9999V25.9999C20.6568 25.9999 22 24.6568 22 23H20H18C18 22.4477 18.4477 21.9999 19 21.9999V23.9999ZM20 23H22V20H20H18V23H20ZM20 20V22H23V20V18H20V20ZM23 20V22C24.6568 22 26 20.6568 26 19H24H22C22 18.4477 22.4477 18 23 18V20ZM24 19L26 19.0001C26.0001 17.3431 24.6568 16 23 16V18V20C22.4478 20 21.9999 19.5523 22 18.9998L24 19Z" fill="white" mask="url(#path-7-inside-4_14_20)"/>
</g>
<defs>
<clipPath id="clip0_14_20">
<rect width="24" height="24" fill="white"/>
</clipPath>
</defs>
</svg>
