<svg width="30" height="30" viewBox="0 0 30 30" fill="none" xmlns="http://www.w3.org/2000/svg">
<path d="M17.2687 7.08625L22.8987 12.7125L12.7112 22.9L7.085 17.27L17.2687 7.08625ZM13.5112 24.5163L24.5112 13.5162C24.7187 13.3125 24.8487 13.03 24.8487 12.7163C24.8487 12.4025 24.72 12.12 24.5125 11.9162L18.0675 5.47125C17.86 5.27375 17.5775 5.1525 17.2675 5.1525C16.9575 5.1525 16.675 5.27375 16.4675 5.4725L5.4675 16.4725C5.26 16.6763 5.13 16.9587 5.13 17.2725C5.13 17.5862 5.25875 17.8688 5.46625 18.0725L11.9112 24.5175C12.1187 24.715 12.4012 24.8362 12.7112 24.8362C13.0212 24.8362 13.3037 24.715 13.5112 24.5163ZM29.34 13.175L13.1925 29.3412C12.7775 29.7487 12.2087 30 11.5812 30C10.9537 30 10.385 29.7487 9.97 29.3412L7.7275 27.1C8.32375 26.485 8.69 25.645 8.69 24.7187C8.69 22.8275 7.15625 21.2937 5.265 21.2937C4.34 21.2937 3.5 21.6612 2.88375 22.2575L2.885 22.2563L0.65875 20.0137C0.25125 19.5987 0 19.03 0 18.4025C0 17.775 0.25125 17.2062 0.65875 16.7912L16.8075 0.65875C17.2225 0.25125 17.7912 0 18.4187 0C19.0462 0 19.615 0.25125 20.03 0.65875L22.2562 2.885C21.6125 3.50875 21.2125 4.38125 21.2125 5.34625C21.2125 7.2375 22.7462 8.77125 24.6375 8.77125C25.6037 8.77125 26.4762 8.37125 27.0987 7.7275L27.1 7.72625L29.3425 9.9525C29.75 10.3675 30.0012 10.9363 30.0012 11.5638C30.0012 12.1913 29.75 12.76 29.3425 13.175H29.34Z" fill="#1551E5"/>
</svg>
